<?xml version="1.0" encoding="UTF-8"?>
<svg xmlns="http://www.w3.org/2000/svg" width="1800" height="598" viewBox="0 0 1800 598" role="img" aria-labelledby="title desc">
<title id="title">Table 2 Sequential evaluation on VisualFLIP.</title>
<desc id="desc">Two-turn protocol: original image first, then edited image in the same conversation. SeqCR measures original-answer persistence.</desc>
<style>
.bg{fill:#fbfbf8}.captionNo{font:700 30px Georgia,serif;fill:#77808a}.captionTitle{font:700 30px Georgia,serif;fill:#171816}.captionSub{font:500 16px Arial,sans-serif;fill:#69736d}.legend{font:500 20px Georgia,serif;fill:#171816}.head{font:700 19px Georgia,serif;fill:#171816}.subhead{font:700 16px Georgia,serif;fill:#222}.model{font:500 18px Georgia,serif;fill:#171816}.group{font:700 17px Arial,sans-serif;fill:#4e5760;letter-spacing:.5px}.num{font:500 18px Georgia,serif;fill:#171816}.strong{font-weight:700}.line{stroke:#171816;stroke-width:1.2}.mid{stroke:#aeb6ae;stroke-width:1}.light{stroke:#dfe4df;stroke-width:1}.stripe{fill:#f5f7f4}.groupBg{fill:#fff}.bestFill{fill:#eaebf8;stroke:#9ca4e8;stroke-width:1.2}.secondFill{fill:#f4f5fb}.bestSwatch{fill:#eaebf8;stroke:#9ca4e8}.secondSwatch{fill:#f4f5fb;stroke:#d8dbef}
</style>
<rect class="bg" width="1800" height="598"/>
<text x="72" y="70" class="captionNo" text-anchor="start">Table 2:</text><text x="230" y="70" class="captionTitle" text-anchor="start">Sequential evaluation on VisualFLIP.</text><text x="72" y="105" class="captionSub" text-anchor="start">Two-turn protocol: original image first, then edited image in the same conversation. SeqCR measures original-answer persistence.</text><rect x="72" y="122" width="24" height="24" rx="5" class="bestSwatch"/><text x="106" y="141" class="legend" text-anchor="start">Best</text><rect x="174" y="122" width="24" height="24" rx="5" class="secondSwatch"/><text x="208" y="141" class="legend" text-anchor="start">Second-best</text><line x1="72" y1="154" x2="1728" y2="154" class="line"/><text x="78" y="195" class="head" text-anchor="start">Model</text><text x="480.6" y="170" class="head" text-anchor="middle">Cardinality</text><line x1="354" y1="180" x2="607.2" y2="180" class="mid"/><text x="411.3" y="202" class="subhead" text-anchor="middle">Acc_p ↑</text><text x="549.9" y="202" class="subhead" text-anchor="middle">SeqCR ↓</text><text x="757.8000000000001" y="170" class="head" text-anchor="middle">Attribute</text><line x1="631.2" y1="180" x2="884.4000000000001" y2="180" class="mid"/><text x="688.5" y="202" class="subhead" text-anchor="middle">Acc_p ↑</text><text x="827.1" y="202" class="subhead" text-anchor="middle">SeqCR ↓</text><text x="1035" y="170" class="head" text-anchor="middle">Spatial</text><line x1="908.4" y1="180" x2="1161.6" y2="180" class="mid"/><text x="965.6999999999999" y="202" class="subhead" text-anchor="middle">Acc_p ↑</text><text x="1104.3" y="202" class="subhead" text-anchor="middle">SeqCR ↓</text><text x="1312.1999999999998" y="170" class="head" text-anchor="middle">Logic</text><line x1="1185.6" y1="180" x2="1438.8" y2="180" class="mid"/><text x="1242.8999999999999" y="202" class="subhead" text-anchor="middle">Acc_p ↑</text><text x="1381.4999999999998" y="202" class="subhead" text-anchor="middle">SeqCR ↓</text><text x="1589.3999999999999" y="170" class="head" text-anchor="middle">Avg</text><line x1="1462.8" y1="180" x2="1716" y2="180" class="mid"/><text x="1520.1" y="202" class="subhead" text-anchor="middle">Acc_p ↑</text><text x="1658.6999999999998" y="202" class="subhead" text-anchor="middle">SeqCR ↓</text><line x1="72" y1="216" x2="1728" y2="216" class="mid"/><text x="78" y="239" class="model">Qwen3-VL-235B</text><text x="411.3" y="239" class="num" text-anchor="middle">11.6</text><text x="549.9" y="239" class="num" text-anchor="middle">72.9</text><text x="688.5" y="239" class="num" text-anchor="middle">13.6</text><text x="827.0999999999999" y="239" class="num" text-anchor="middle">68.3</text><text x="965.6999999999999" y="239" class="num" text-anchor="middle">36.0</text><text x="1104.3" y="239" class="num" text-anchor="middle">39.4</text><text x="1242.8999999999999" y="239" class="num" text-anchor="middle">24.6</text><text x="1381.4999999999998" y="239" class="num" text-anchor="middle">38.5</text><text x="1520.1" y="239" class="num" text-anchor="middle">19.9</text><text x="1658.6999999999998" y="239" class="num" text-anchor="middle">56.7</text><rect x="72" y="250" width="1656" height="34" class="stripe"/><text x="78" y="273" class="model">GLM-4.6V</text><text x="411.3" y="273" class="num" text-anchor="middle">14.5</text><text x="549.9" y="273" class="num" text-anchor="middle">57.1</text><text x="688.5" y="273" class="num" text-anchor="middle">13.8</text><text x="827.0999999999999" y="273" class="num" text-anchor="middle">63.4</text><text x="965.6999999999999" y="273" class="num" text-anchor="middle">21.3</text><text x="1104.3" y="273" class="num" text-anchor="middle">55.1</text><text x="1242.8999999999999" y="273" class="num" text-anchor="middle">10.4</text><text x="1381.4999999999998" y="273" class="num" text-anchor="middle">47.1</text><text x="1520.1" y="273" class="num" text-anchor="middle">15.0</text><text x="1658.6999999999998" y="273" class="num" text-anchor="middle">57.5</text><text x="78" y="307" class="model">GPT-4o</text><text x="411.3" y="307" class="num" text-anchor="middle">16.4</text><text x="549.9" y="307" class="num" text-anchor="middle">25.0</text><text x="688.5" y="307" class="num" text-anchor="middle">38.1</text><rect x="762.8" y="288" width="128.6" height="26" rx="7" class="bestFill"/><text x="827.0999999999999" y="307" class="num strong" text-anchor="middle">8.5</text><text x="965.6999999999999" y="307" class="num" text-anchor="middle">45.3</text><rect x="1040" y="288" width="128.6" height="26" rx="7" class="secondFill"/><text x="1104.3" y="307" class="num" text-anchor="middle">11.6</text><text x="1242.8999999999999" y="307" class="num" text-anchor="middle">14.4</text><text x="1381.4999999999998" y="307" class="num" text-anchor="middle">15.6</text><text x="1520.1" y="307" class="num" text-anchor="middle">31.0</text><rect x="1594.3999999999999" y="288" width="128.6" height="26" rx="7" class="secondFill"/><text x="1658.6999999999998" y="307" class="num" text-anchor="middle">13.2</text><rect x="72" y="318" width="1656" height="34" class="stripe"/><text x="78" y="341" class="model">GPT-5-mini</text><text x="411.3" y="341" class="num" text-anchor="middle">11.6</text><text x="549.9" y="341" class="num" text-anchor="middle">64.8</text><text x="688.5" y="341" class="num" text-anchor="middle">31.9</text><text x="827.0999999999999" y="341" class="num" text-anchor="middle">47.4</text><text x="965.6999999999999" y="341" class="num" text-anchor="middle">40.7</text><text x="1104.3" y="341" class="num" text-anchor="middle">37.1</text><text x="1242.8999999999999" y="341" class="num" text-anchor="middle">21.2</text><text x="1381.4999999999998" y="341" class="num" text-anchor="middle">51.5</text><text x="1520.1" y="341" class="num" text-anchor="middle">27.7</text><text x="1658.6999999999998" y="341" class="num" text-anchor="middle">48.4</text><text x="78" y="375" class="model">Gemini 3.1 Pro</text><rect x="347" y="356" width="128.6" height="26" rx="7" class="secondFill"/><text x="411.3" y="375" class="num" text-anchor="middle">76.7</text><rect x="485.6" y="356" width="128.6" height="26" rx="7" class="secondFill"/><text x="549.9" y="375" class="num" text-anchor="middle">10.1</text><rect x="624.2" y="356" width="128.6" height="26" rx="7" class="bestFill"/><text x="688.5" y="375" class="num strong" text-anchor="middle">83.2</text><rect x="762.8" y="356" width="128.6" height="26" rx="7" class="secondFill"/><text x="827.0999999999999" y="375" class="num" text-anchor="middle">10.5</text><rect x="901.4" y="356" width="128.6" height="26" rx="7" class="bestFill"/><text x="965.6999999999999" y="375" class="num strong" text-anchor="middle">70.7</text><text x="1104.3" y="375" class="num" text-anchor="middle">14.5</text><rect x="1178.6" y="356" width="128.6" height="26" rx="7" class="bestFill"/><text x="1242.8999999999999" y="375" class="num strong" text-anchor="middle">68.6</text><rect x="1317.1999999999998" y="356" width="128.6" height="26" rx="7" class="secondFill"/><text x="1381.4999999999998" y="375" class="num" text-anchor="middle">11.3</text><rect x="1455.8" y="356" width="128.6" height="26" rx="7" class="bestFill"/><text x="1520.1" y="375" class="num strong" text-anchor="middle">76.6</text><rect x="1594.3999999999999" y="356" width="128.6" height="26" rx="7" class="bestFill"/><text x="1658.6999999999998" y="375" class="num strong" text-anchor="middle">11.4</text><rect x="72" y="386" width="1656" height="34" class="stripe"/><text x="78" y="409" class="model">GLM-5V-Turbo</text><text x="411.3" y="409" class="num" text-anchor="middle">18.7</text><text x="549.9" y="409" class="num" text-anchor="middle">79.4</text><text x="688.5" y="409" class="num" text-anchor="middle">19.1</text><text x="827.0999999999999" y="409" class="num" text-anchor="middle">38.3</text><text x="965.6999999999999" y="409" class="num" text-anchor="middle">28.0</text><text x="1104.3" y="409" class="num" text-anchor="middle">41.9</text><text x="1242.8999999999999" y="409" class="num" text-anchor="middle">21.0</text><text x="1381.4999999999998" y="409" class="num" text-anchor="middle">33.3</text><text x="1520.1" y="409" class="num" text-anchor="middle">21.3</text><text x="1658.6999999999998" y="409" class="num" text-anchor="middle">47.1</text><text x="78" y="443" class="model">Qwen3.6-Plus</text><text x="411.3" y="443" class="num" text-anchor="middle">43.2</text><text x="549.9" y="443" class="num" text-anchor="middle">51.1</text><text x="688.5" y="443" class="num" text-anchor="middle">53.1</text><text x="827.0999999999999" y="443" class="num" text-anchor="middle">41.3</text><text x="965.6999999999999" y="443" class="num" text-anchor="middle">49.3</text><text x="1104.3" y="443" class="num" text-anchor="middle">32.5</text><text x="1242.8999999999999" y="443" class="num" text-anchor="middle">48.3</text><text x="1381.4999999999998" y="443" class="num" text-anchor="middle">22.1</text><text x="1520.1" y="443" class="num" text-anchor="middle">49.3</text><text x="1658.6999999999998" y="443" class="num" text-anchor="middle">39.2</text><rect x="72" y="454" width="1656" height="34" class="stripe"/><text x="78" y="477" class="model">Claude Opus 4.7</text><text x="411.3" y="477" class="num" text-anchor="middle">34.9</text><text x="549.9" y="477" class="num" text-anchor="middle">22.5</text><text x="688.5" y="477" class="num" text-anchor="middle">64.5</text><text x="827.0999999999999" y="477" class="num" text-anchor="middle">23.4</text><text x="965.6999999999999" y="477" class="num" text-anchor="middle">50.0</text><text x="1104.3" y="477" class="num" text-anchor="middle">18.6</text><text x="1242.8999999999999" y="477" class="num" text-anchor="middle">47.5</text><text x="1381.4999999999998" y="477" class="num" text-anchor="middle">19.8</text><text x="1520.1" y="477" class="num" text-anchor="middle">52.1</text><text x="1658.6999999999998" y="477" class="num" text-anchor="middle">21.6</text><text x="78" y="511" class="model">Grok 4.3</text><text x="411.3" y="511" class="num" text-anchor="middle">15.1</text><text x="549.9" y="511" class="num" text-anchor="middle">41.4</text><text x="688.5" y="511" class="num" text-anchor="middle">26.7</text><text x="827.0999999999999" y="511" class="num" text-anchor="middle">43.8</text><text x="965.6999999999999" y="511" class="num" text-anchor="middle">40.7</text><text x="1104.3" y="511" class="num" text-anchor="middle">27.1</text><text x="1242.8999999999999" y="511" class="num" text-anchor="middle">26.3</text><text x="1381.4999999999998" y="511" class="num" text-anchor="middle">25.0</text><text x="1520.1" y="511" class="num" text-anchor="middle">27.2</text><text x="1658.6999999999998" y="511" class="num" text-anchor="middle">36.5</text><rect x="72" y="522" width="1656" height="34" class="stripe"/><text x="78" y="545" class="model">Gemini 3.5 Flash</text><rect x="347" y="526" width="128.6" height="26" rx="7" class="bestFill"/><text x="411.3" y="545" class="num strong" text-anchor="middle">80.8</text><rect x="485.6" y="526" width="128.6" height="26" rx="7" class="bestFill"/><text x="549.9" y="545" class="num strong" text-anchor="middle">8.1</text><rect x="624.2" y="526" width="128.6" height="26" rx="7" class="secondFill"/><text x="688.5" y="545" class="num" text-anchor="middle">66.3</text><text x="827.0999999999999" y="545" class="num" text-anchor="middle">22.8</text><rect x="901.4" y="526" width="128.6" height="26" rx="7" class="secondFill"/><text x="965.6999999999999" y="545" class="num" text-anchor="middle">65.3</text><rect x="1040" y="526" width="128.6" height="26" rx="7" class="bestFill"/><text x="1104.3" y="545" class="num strong" text-anchor="middle">9.0</text><rect x="1178.6" y="526" width="128.6" height="26" rx="7" class="secondFill"/><text x="1242.8999999999999" y="545" class="num" text-anchor="middle">66.1</text><rect x="1317.1999999999998" y="526" width="128.6" height="26" rx="7" class="bestFill"/><text x="1381.4999999999998" y="545" class="num strong" text-anchor="middle">6.8</text><rect x="1455.8" y="526" width="128.6" height="26" rx="7" class="secondFill"/><text x="1520.1" y="545" class="num" text-anchor="middle">69.1</text><text x="1658.6999999999998" y="545" class="num" text-anchor="middle">14.2</text><line x1="72" y1="556" x2="1728" y2="556" class="line"/>
</svg>
