<?xml version="1.0" encoding="UTF-8"?>
<svg xmlns="http://www.w3.org/2000/svg" width="1900" height="1176" viewBox="0 0 1900 1176" role="img" aria-labelledby="title desc">
<title id="title">Table 1 Main results on VisualFLIP.</title>
<desc id="desc">Pair accuracy (Acc_p) and Collapse Rate (CR) across perturbation categories. Higher Acc_p and lower CR are better.</desc>
<style>
.bg{fill:#fbfbf8}.captionNo{font:700 30px Georgia,serif;fill:#77808a}.captionTitle{font:700 30px Georgia,serif;fill:#171816}.captionSub{font:500 16px Arial,sans-serif;fill:#69736d}.legend{font:500 20px Georgia,serif;fill:#171816}.head{font:700 19px Georgia,serif;fill:#171816}.subhead{font:700 16px Georgia,serif;fill:#222}.model{font:500 18px Georgia,serif;fill:#171816}.group{font:700 17px Arial,sans-serif;fill:#4e5760;letter-spacing:.5px}.num{font:500 18px Georgia,serif;fill:#171816}.strong{font-weight:700}.line{stroke:#171816;stroke-width:1.2}.mid{stroke:#aeb6ae;stroke-width:1}.light{stroke:#dfe4df;stroke-width:1}.stripe{fill:#f5f7f4}.groupBg{fill:#fff}.bestFill{fill:#eaebf8;stroke:#9ca4e8;stroke-width:1.2}.secondFill{fill:#f4f5fb}.bestSwatch{fill:#eaebf8;stroke:#9ca4e8}.secondSwatch{fill:#f4f5fb;stroke:#d8dbef}
</style>
<rect class="bg" width="1900" height="1176"/>
<text x="72" y="70" class="captionNo" text-anchor="start">Table 1:</text><text x="230" y="70" class="captionTitle" text-anchor="start">Main results on VisualFLIP.</text><text x="72" y="105" class="captionSub" text-anchor="start">Pair accuracy (Acc_p) and Collapse Rate (CR) across perturbation categories. Higher Acc_p and lower CR are better.</text><rect x="72" y="122" width="24" height="24" rx="5" class="bestSwatch"/><text x="106" y="141" class="legend" text-anchor="start">Best</text><rect x="174" y="122" width="24" height="24" rx="5" class="secondSwatch"/><text x="208" y="141" class="legend" text-anchor="start">Second-best</text><line x1="72" y1="154" x2="1828" y2="154" class="line"/><text x="78" y="195" class="head" text-anchor="start">Model</text><text x="358" y="195" class="head" text-anchor="middle">Year</text><text x="537.4" y="170" class="head" text-anchor="middle">Cardinality</text><line x1="406" y1="180" x2="668.8" y2="180" class="mid"/><text x="465.7" y="202" class="subhead" text-anchor="middle">Acc_p ↑</text><text x="609.1" y="202" class="subhead" text-anchor="middle">CR ↓</text><text x="824.1999999999999" y="170" class="head" text-anchor="middle">Attribute</text><line x1="692.8" y1="180" x2="955.5999999999999" y2="180" class="mid"/><text x="752.5" y="202" class="subhead" text-anchor="middle">Acc_p ↑</text><text x="895.9" y="202" class="subhead" text-anchor="middle">CR ↓</text><text x="1111" y="170" class="head" text-anchor="middle">Spatial</text><line x1="979.6" y1="180" x2="1242.4" y2="180" class="mid"/><text x="1039.3" y="202" class="subhead" text-anchor="middle">Acc_p ↑</text><text x="1182.7" y="202" class="subhead" text-anchor="middle">CR ↓</text><text x="1397.8000000000002" y="170" class="head" text-anchor="middle">Logic</text><line x1="1266.4" y1="180" x2="1529.2" y2="180" class="mid"/><text x="1326.1000000000001" y="202" class="subhead" text-anchor="middle">Acc_p ↑</text><text x="1469.5000000000002" y="202" class="subhead" text-anchor="middle">CR ↓</text><text x="1684.6000000000001" y="170" class="head" text-anchor="middle">Avg</text><line x1="1553.2" y1="180" x2="1816" y2="180" class="mid"/><text x="1612.9" y="202" class="subhead" text-anchor="middle">Acc_p ↑</text><text x="1756.3000000000002" y="202" class="subhead" text-anchor="middle">CR ↓</text><line x1="72" y1="216" x2="1828" y2="216" class="mid"/><rect x="72" y="216" width="1756" height="32" class="groupBg"/><line x1="72" y1="216" x2="1828" y2="216" class="light"/><text x="950" y="238" class="group" text-anchor="middle">OPEN-SOURCE</text><text x="78" y="271" class="model">Qwen2.5-VL-7B</text><text x="358" y="271" class="num" text-anchor="middle">2025</text><text x="465.7" y="271" class="num" text-anchor="middle">3.4</text><text x="609.1" y="271" class="num" text-anchor="middle">45.2</text><text x="752.5" y="271" class="num" text-anchor="middle">12.8</text><text x="895.9000000000001" y="271" class="num" text-anchor="middle">61.2</text><text x="1039.3" y="271" class="num" text-anchor="middle">6.7</text><text x="1182.7" y="271" class="num" text-anchor="middle">53.6</text><text x="1326.1000000000001" y="271" class="num" text-anchor="middle">11.0</text><text x="1469.5000000000002" y="271" class="num" text-anchor="middle">35.2</text><text x="1612.9" y="271" class="num" text-anchor="middle">9.2</text><text x="1756.3000000000002" y="271" class="num" text-anchor="middle">53.0</text><rect x="72" y="282" width="1756" height="34" class="stripe"/><text x="78" y="305" class="model">Qwen3-VL-235B</text><text x="358" y="305" class="num" text-anchor="middle">2025</text><text x="465.7" y="305" class="num" text-anchor="middle">26.7</text><text x="609.1" y="305" class="num" text-anchor="middle">47.2</text><text x="752.5" y="305" class="num" text-anchor="middle">19.0</text><text x="895.9000000000001" y="305" class="num" text-anchor="middle">60.1</text><text x="1039.3" y="305" class="num" text-anchor="middle">38.7</text><text x="1182.7" y="305" class="num" text-anchor="middle">39.7</text><text x="1326.1000000000001" y="305" class="num" text-anchor="middle">28.0</text><text x="1469.5000000000002" y="305" class="num" text-anchor="middle">24.2</text><text x="1612.9" y="305" class="num" text-anchor="middle">26.5</text><text x="1756.3000000000002" y="305" class="num" text-anchor="middle">47.7</text><text x="78" y="339" class="model">Qwen3-VL-32B</text><text x="358" y="339" class="num" text-anchor="middle">2025</text><text x="465.7" y="339" class="num" text-anchor="middle">27.4</text><text x="609.1" y="339" class="num" text-anchor="middle">50.5</text><text x="752.5" y="339" class="num" text-anchor="middle">16.8</text><text x="895.9000000000001" y="339" class="num" text-anchor="middle">67.4</text><text x="1039.3" y="339" class="num" text-anchor="middle">42.0</text><text x="1182.7" y="339" class="num" text-anchor="middle">36.6</text><text x="1326.1000000000001" y="339" class="num" text-anchor="middle">19.5</text><text x="1469.5000000000002" y="339" class="num" text-anchor="middle">37.5</text><text x="1612.9" y="339" class="num" text-anchor="middle">25.0</text><text x="1756.3000000000002" y="339" class="num" text-anchor="middle">51.4</text><rect x="72" y="350" width="1756" height="34" class="stripe"/><text x="78" y="373" class="model">Qwen3-VL-8B</text><text x="358" y="373" class="num" text-anchor="middle">2025</text><text x="465.7" y="373" class="num" text-anchor="middle">15.8</text><text x="609.1" y="373" class="num" text-anchor="middle">55.1</text><text x="752.5" y="373" class="num" text-anchor="middle">11.7</text><text x="895.9000000000001" y="373" class="num" text-anchor="middle">61.5</text><text x="1039.3" y="373" class="num" text-anchor="middle">28.0</text><text x="1182.7" y="373" class="num" text-anchor="middle">43.2</text><text x="1326.1000000000001" y="373" class="num" text-anchor="middle">20.3</text><text x="1469.5000000000002" y="373" class="num" text-anchor="middle">48.5</text><text x="1612.9" y="373" class="num" text-anchor="middle">17.6</text><text x="1756.3000000000002" y="373" class="num" text-anchor="middle">52.7</text><text x="78" y="407" class="model">GLM-4.6V-106B</text><text x="358" y="407" class="num" text-anchor="middle">2025</text><text x="465.7" y="407" class="num" text-anchor="middle">37.0</text><text x="609.1" y="407" class="num" text-anchor="middle">14.0</text><rect x="685.8" y="388" width="133.4" height="26" rx="7" class="secondFill"/><text x="752.5" y="407" class="num" text-anchor="middle">42.9</text><text x="895.9000000000001" y="407" class="num" text-anchor="middle">32.5</text><rect x="972.6" y="388" width="133.4" height="26" rx="7" class="secondFill"/><text x="1039.3" y="407" class="num" text-anchor="middle">44.7</text><text x="1182.7" y="407" class="num" text-anchor="middle">32.3</text><text x="1326.1000000000001" y="407" class="num" text-anchor="middle">23.7</text><text x="1469.5000000000002" y="407" class="num" text-anchor="middle">14.3</text><text x="1612.9" y="407" class="num" text-anchor="middle">38.7</text><text x="1756.3000000000002" y="407" class="num" text-anchor="middle">26.6</text><rect x="72" y="418" width="1756" height="34" class="stripe"/><text x="78" y="441" class="model">Kimi K2.6-1T</text><text x="358" y="441" class="num" text-anchor="middle">2026</text><rect x="399" y="422" width="133.4" height="26" rx="7" class="bestFill"/><text x="465.7" y="441" class="num strong" text-anchor="middle">48.6</text><rect x="542.4" y="422" width="133.4" height="26" rx="7" class="bestFill"/><text x="609.1" y="441" class="num strong" text-anchor="middle">2.9</text><text x="752.5" y="441" class="num" text-anchor="middle">39.9</text><rect x="829.2" y="422" width="133.4" height="26" rx="7" class="bestFill"/><text x="895.9000000000001" y="441" class="num strong" text-anchor="middle">1.7</text><text x="1039.3" y="441" class="num" text-anchor="middle">41.6</text><rect x="1116" y="422" width="133.4" height="26" rx="7" class="bestFill"/><text x="1182.7" y="441" class="num strong" text-anchor="middle">2.4</text><rect x="1259.4" y="422" width="133.4" height="26" rx="7" class="secondFill"/><text x="1326.1000000000001" y="441" class="num" text-anchor="middle">35.6</text><rect x="1402.8000000000002" y="422" width="133.4" height="26" rx="7" class="bestFill"/><text x="1469.5000000000002" y="441" class="num strong" text-anchor="middle">5.6</text><rect x="1546.2" y="422" width="133.4" height="26" rx="7" class="secondFill"/><text x="1612.9" y="441" class="num" text-anchor="middle">41.6</text><rect x="1689.6000000000001" y="422" width="133.4" height="26" rx="7" class="bestFill"/><text x="1756.3000000000002" y="441" class="num strong" text-anchor="middle">2.9</text><text x="78" y="475" class="model">MiMo-v2.5-310B</text><text x="358" y="475" class="num" text-anchor="middle">2026</text><rect x="399" y="456" width="133.4" height="26" rx="7" class="secondFill"/><text x="465.7" y="475" class="num" text-anchor="middle">47.3</text><rect x="542.4" y="456" width="133.4" height="26" rx="7" class="secondFill"/><text x="609.1" y="475" class="num" text-anchor="middle">8.8</text><rect x="685.8" y="456" width="133.4" height="26" rx="7" class="bestFill"/><text x="752.5" y="475" class="num strong" text-anchor="middle">59.0</text><rect x="829.2" y="456" width="133.4" height="26" rx="7" class="secondFill"/><text x="895.9000000000001" y="475" class="num" text-anchor="middle">7.6</text><rect x="972.6" y="456" width="133.4" height="26" rx="7" class="bestFill"/><text x="1039.3" y="475" class="num strong" text-anchor="middle">46.2</text><rect x="1116" y="456" width="133.4" height="26" rx="7" class="secondFill"/><text x="1182.7" y="475" class="num" text-anchor="middle">15.7</text><rect x="1259.4" y="456" width="133.4" height="26" rx="7" class="bestFill"/><text x="1326.1000000000001" y="475" class="num strong" text-anchor="middle">43.2</text><rect x="1402.8000000000002" y="456" width="133.4" height="26" rx="7" class="secondFill"/><text x="1469.5000000000002" y="475" class="num" text-anchor="middle">8.6</text><rect x="1546.2" y="456" width="133.4" height="26" rx="7" class="bestFill"/><text x="1612.9" y="475" class="num strong" text-anchor="middle">51.0</text><rect x="1689.6000000000001" y="456" width="133.4" height="26" rx="7" class="secondFill"/><text x="1756.3000000000002" y="475" class="num" text-anchor="middle">9.6</text><rect x="72" y="486" width="1756" height="32" class="groupBg"/><line x1="72" y1="486" x2="1828" y2="486" class="light"/><text x="950" y="508" class="group" text-anchor="middle">OPEN-SOURCE, TOOL-AUGMENTED</text><text x="78" y="541" class="model">DeepEyes-7B</text><text x="358" y="541" class="num" text-anchor="middle">2025</text><text x="465.7" y="541" class="num" text-anchor="middle">4.1</text><text x="609.1" y="541" class="num" text-anchor="middle">42.1</text><text x="752.5" y="541" class="num" text-anchor="middle">8.1</text><text x="895.9000000000001" y="541" class="num" text-anchor="middle">64.6</text><text x="1039.3" y="541" class="num" text-anchor="middle">8.0</text><text x="1182.7" y="541" class="num" text-anchor="middle">45.6</text><rect x="1259.4" y="522" width="133.4" height="26" rx="7" class="secondFill"/><text x="1326.1000000000001" y="541" class="num" text-anchor="middle">7.6</text><text x="1469.5000000000002" y="541" class="num" text-anchor="middle">44.3</text><text x="1612.9" y="541" class="num" text-anchor="middle">7.1</text><text x="1756.3000000000002" y="541" class="num" text-anchor="middle">53.0</text><rect x="72" y="552" width="1756" height="34" class="stripe"/><text x="78" y="575" class="model">CoF-7B</text><text x="358" y="575" class="num" text-anchor="middle">2025</text><rect x="399" y="556" width="133.4" height="26" rx="7" class="bestFill"/><text x="465.7" y="575" class="num strong" text-anchor="middle">7.5</text><rect x="542.4" y="556" width="133.4" height="26" rx="7" class="bestFill"/><text x="609.1" y="575" class="num strong" text-anchor="middle">33.3</text><rect x="685.8" y="556" width="133.4" height="26" rx="7" class="bestFill"/><text x="752.5" y="575" class="num strong" text-anchor="middle">13.2</text><text x="895.9000000000001" y="575" class="num" text-anchor="middle">54.7</text><rect x="972.6" y="556" width="133.4" height="26" rx="7" class="bestFill"/><text x="1039.3" y="575" class="num strong" text-anchor="middle">14.7</text><rect x="1116" y="556" width="133.4" height="26" rx="7" class="secondFill"/><text x="1182.7" y="575" class="num" text-anchor="middle">42.0</text><text x="1326.1000000000001" y="575" class="num" text-anchor="middle">3.4</text><text x="1469.5000000000002" y="575" class="num" text-anchor="middle">49.0</text><rect x="1546.2" y="556" width="133.4" height="26" rx="7" class="bestFill"/><text x="1612.9" y="575" class="num strong" text-anchor="middle">10.6</text><text x="1756.3000000000002" y="575" class="num" text-anchor="middle">47.4</text><text x="78" y="609" class="model">PixelReasoner-8B</text><text x="358" y="609" class="num" text-anchor="middle">2025</text><rect x="399" y="590" width="133.4" height="26" rx="7" class="secondFill"/><text x="465.7" y="609" class="num" text-anchor="middle">4.8</text><text x="609.1" y="609" class="num" text-anchor="middle">38.1</text><rect x="685.8" y="590" width="133.4" height="26" rx="7" class="secondFill"/><text x="752.5" y="609" class="num" text-anchor="middle">12.1</text><text x="895.9000000000001" y="609" class="num" text-anchor="middle">55.1</text><text x="1039.3" y="609" class="num" text-anchor="middle">5.3</text><text x="1182.7" y="609" class="num" text-anchor="middle">56.2</text><text x="1326.1000000000001" y="609" class="num" text-anchor="middle">5.1</text><text x="1469.5000000000002" y="609" class="num" text-anchor="middle">50.0</text><text x="1612.9" y="609" class="num" text-anchor="middle">7.9</text><text x="1756.3000000000002" y="609" class="num" text-anchor="middle">51.6</text><rect x="72" y="620" width="1756" height="34" class="stripe"/><text x="78" y="643" class="model">Mini-o3-7B</text><text x="358" y="643" class="num" text-anchor="middle">2025</text><rect x="399" y="624" width="133.4" height="26" rx="7" class="secondFill"/><text x="465.7" y="643" class="num" text-anchor="middle">4.8</text><text x="609.1" y="643" class="num" text-anchor="middle">38.3</text><text x="752.5" y="643" class="num" text-anchor="middle">10.6</text><rect x="829.2" y="624" width="133.4" height="26" rx="7" class="bestFill"/><text x="895.9000000000001" y="643" class="num strong" text-anchor="middle">49.6</text><text x="1039.3" y="643" class="num" text-anchor="middle">5.3</text><text x="1182.7" y="643" class="num" text-anchor="middle">42.1</text><text x="1326.1000000000001" y="643" class="num" text-anchor="middle">5.1</text><rect x="1402.8000000000002" y="624" width="133.4" height="26" rx="7" class="secondFill"/><text x="1469.5000000000002" y="643" class="num" text-anchor="middle">42.0</text><text x="1612.9" y="643" class="num" text-anchor="middle">7.3</text><rect x="1689.6000000000001" y="624" width="133.4" height="26" rx="7" class="secondFill"/><text x="1756.3000000000002" y="643" class="num" text-anchor="middle">44.7</text><text x="78" y="677" class="model">DeepEyesV2-7B</text><text x="358" y="677" class="num" text-anchor="middle">2026</text><rect x="399" y="658" width="133.4" height="26" rx="7" class="bestFill"/><text x="465.7" y="677" class="num strong" text-anchor="middle">7.5</text><rect x="542.4" y="658" width="133.4" height="26" rx="7" class="secondFill"/><text x="609.1" y="677" class="num" text-anchor="middle">34.4</text><text x="752.5" y="677" class="num" text-anchor="middle">8.4</text><rect x="829.2" y="658" width="133.4" height="26" rx="7" class="secondFill"/><text x="895.9000000000001" y="677" class="num" text-anchor="middle">50.7</text><rect x="972.6" y="658" width="133.4" height="26" rx="7" class="secondFill"/><text x="1039.3" y="677" class="num" text-anchor="middle">11.3</text><rect x="1116" y="658" width="133.4" height="26" rx="7" class="bestFill"/><text x="1182.7" y="677" class="num strong" text-anchor="middle">41.5</text><rect x="1259.4" y="658" width="133.4" height="26" rx="7" class="bestFill"/><text x="1326.1000000000001" y="677" class="num strong" text-anchor="middle">10.2</text><rect x="1402.8000000000002" y="658" width="133.4" height="26" rx="7" class="bestFill"/><text x="1469.5000000000002" y="677" class="num strong" text-anchor="middle">32.8</text><rect x="1546.2" y="658" width="133.4" height="26" rx="7" class="secondFill"/><text x="1612.9" y="677" class="num" text-anchor="middle">9.2</text><rect x="1689.6000000000001" y="658" width="133.4" height="26" rx="7" class="bestFill"/><text x="1756.3000000000002" y="677" class="num strong" text-anchor="middle">42.6</text><rect x="72" y="688" width="1756" height="32" class="groupBg"/><line x1="72" y1="688" x2="1828" y2="688" class="light"/><text x="950" y="710" class="group" text-anchor="middle">CLOSED-SOURCE</text><text x="78" y="743" class="model">GPT-4o</text><text x="358" y="743" class="num" text-anchor="middle">2024</text><text x="465.7" y="743" class="num" text-anchor="middle">13.0</text><text x="609.1" y="743" class="num" text-anchor="middle">57.1</text><text x="752.5" y="743" class="num" text-anchor="middle">20.9</text><text x="895.9000000000001" y="743" class="num" text-anchor="middle">61.7</text><text x="1039.3" y="743" class="num" text-anchor="middle">40.0</text><text x="1182.7" y="743" class="num" text-anchor="middle">34.7</text><text x="1326.1000000000001" y="743" class="num" text-anchor="middle">20.3</text><text x="1469.5000000000002" y="743" class="num" text-anchor="middle">34.9</text><text x="1612.9" y="743" class="num" text-anchor="middle">23.3</text><text x="1756.3000000000002" y="743" class="num" text-anchor="middle">50.6</text><rect x="72" y="754" width="1756" height="34" class="stripe"/><text x="78" y="777" class="model">GPT-5-mini</text><text x="358" y="777" class="num" text-anchor="middle">2025</text><text x="465.7" y="777" class="num" text-anchor="middle">28.1</text><text x="609.1" y="777" class="num" text-anchor="middle">27.3</text><text x="752.5" y="777" class="num" text-anchor="middle">53.8</text><text x="895.9000000000001" y="777" class="num" text-anchor="middle">29.0</text><text x="1039.3" y="777" class="num" text-anchor="middle">47.3</text><text x="1182.7" y="777" class="num" text-anchor="middle">30.4</text><text x="1326.1000000000001" y="777" class="num" text-anchor="middle">44.1</text><text x="1469.5000000000002" y="777" class="num" text-anchor="middle">20.2</text><text x="1612.9" y="777" class="num" text-anchor="middle">45.3</text><text x="1756.3000000000002" y="777" class="num" text-anchor="middle">27.6</text><text x="78" y="811" class="model">Claude Opus 4.6</text><text x="358" y="811" class="num" text-anchor="middle">2026</text><text x="465.7" y="811" class="num" text-anchor="middle">19.2</text><text x="609.1" y="811" class="num" text-anchor="middle">25.0</text><text x="752.5" y="811" class="num" text-anchor="middle">38.1</text><text x="895.9000000000001" y="811" class="num" text-anchor="middle">17.3</text><text x="1039.3" y="811" class="num" text-anchor="middle">30.7</text><text x="1182.7" y="811" class="num" text-anchor="middle">29.1</text><text x="1326.1000000000001" y="811" class="num" text-anchor="middle">14.4</text><text x="1469.5000000000002" y="811" class="num" text-anchor="middle">32.7</text><text x="1612.9" y="811" class="num" text-anchor="middle">28.4</text><text x="1756.3000000000002" y="811" class="num" text-anchor="middle">23.2</text><rect x="72" y="822" width="1756" height="34" class="stripe"/><text x="78" y="845" class="model">Gemini 3.1 Pro</text><text x="358" y="845" class="num" text-anchor="middle">2026</text><text x="465.7" y="845" class="num" text-anchor="middle">79.5</text><text x="609.1" y="845" class="num" text-anchor="middle">8.6</text><rect x="685.8" y="826" width="133.4" height="26" rx="7" class="secondFill"/><text x="752.5" y="845" class="num" text-anchor="middle">88.3</text><text x="895.9000000000001" y="845" class="num" text-anchor="middle">5.9</text><text x="1039.3" y="845" class="num" text-anchor="middle">68.7</text><text x="1182.7" y="845" class="num" text-anchor="middle">16.0</text><text x="1326.1000000000001" y="845" class="num" text-anchor="middle">59.3</text><text x="1469.5000000000002" y="845" class="num" text-anchor="middle">15.5</text><text x="1612.9" y="845" class="num" text-anchor="middle">77.1</text><text x="1756.3000000000002" y="845" class="num" text-anchor="middle">10.1</text><text x="78" y="879" class="model">Qwen3.5-Flash</text><text x="358" y="879" class="num" text-anchor="middle">2026</text><text x="465.7" y="879" class="num" text-anchor="middle">74.0</text><rect x="542.4" y="860" width="133.4" height="26" rx="7" class="secondFill"/><text x="609.1" y="879" class="num" text-anchor="middle">6.4</text><text x="752.5" y="879" class="num" text-anchor="middle">87.2</text><rect x="829.2" y="860" width="133.4" height="26" rx="7" class="secondFill"/><text x="895.9000000000001" y="879" class="num" text-anchor="middle">3.8</text><text x="1039.3" y="879" class="num" text-anchor="middle">52.7</text><text x="1182.7" y="879" class="num" text-anchor="middle">17.3</text><text x="1326.1000000000001" y="879" class="num" text-anchor="middle">59.3</text><text x="1469.5000000000002" y="879" class="num" text-anchor="middle">7.9</text><text x="1612.9" y="879" class="num" text-anchor="middle">72.1</text><text x="1756.3000000000002" y="879" class="num" text-anchor="middle">7.8</text><rect x="72" y="890" width="1756" height="34" class="stripe"/><text x="78" y="913" class="model">Seed 2.0 Mini</text><text x="358" y="913" class="num" text-anchor="middle">2026</text><text x="465.7" y="913" class="num" text-anchor="middle">61.7</text><text x="609.1" y="913" class="num" text-anchor="middle">10.1</text><text x="752.5" y="913" class="num" text-anchor="middle">86.2</text><text x="895.9000000000001" y="913" class="num" text-anchor="middle">8.8</text><text x="1039.3" y="913" class="num" text-anchor="middle">67.4</text><text x="1182.7" y="913" class="num" text-anchor="middle">18.4</text><text x="1326.1000000000001" y="913" class="num" text-anchor="middle">40.2</text><text x="1469.5000000000002" y="913" class="num" text-anchor="middle">14.5</text><text x="1612.9" y="913" class="num" text-anchor="middle">68.6</text><text x="1756.3000000000002" y="913" class="num" text-anchor="middle">11.8</text><text x="78" y="947" class="model">GLM-5V-Turbo</text><text x="358" y="947" class="num" text-anchor="middle">2026</text><text x="465.7" y="947" class="num" text-anchor="middle">41.1</text><text x="609.1" y="947" class="num" text-anchor="middle">13.3</text><text x="752.5" y="947" class="num" text-anchor="middle">78.7</text><text x="895.9000000000001" y="947" class="num" text-anchor="middle">5.5</text><text x="1039.3" y="947" class="num" text-anchor="middle">53.6</text><text x="1182.7" y="947" class="num" text-anchor="middle">17.3</text><text x="1326.1000000000001" y="947" class="num" text-anchor="middle">46.6</text><text x="1469.5000000000002" y="947" class="num" text-anchor="middle">11.1</text><text x="1612.9" y="947" class="num" text-anchor="middle">59.7</text><text x="1756.3000000000002" y="947" class="num" text-anchor="middle">10.2</text><rect x="72" y="958" width="1756" height="34" class="stripe"/><text x="78" y="981" class="model">Qwen3.6-Plus</text><text x="358" y="981" class="num" text-anchor="middle">2026</text><text x="465.7" y="981" class="num" text-anchor="middle">83.6</text><text x="609.1" y="981" class="num" text-anchor="middle">8.3</text><rect x="685.8" y="962" width="133.4" height="26" rx="7" class="bestFill"/><text x="752.5" y="981" class="num strong" text-anchor="middle">90.5</text><rect x="829.2" y="962" width="133.4" height="26" rx="7" class="bestFill"/><text x="895.9000000000001" y="981" class="num strong" text-anchor="middle">3.4</text><rect x="972.6" y="962" width="133.4" height="26" rx="7" class="secondFill"/><text x="1039.3" y="981" class="num" text-anchor="middle">69.3</text><text x="1182.7" y="981" class="num" text-anchor="middle">12.8</text><rect x="1259.4" y="962" width="133.4" height="26" rx="7" class="secondFill"/><text x="1326.1000000000001" y="981" class="num" text-anchor="middle">66.1</text><rect x="1402.8000000000002" y="962" width="133.4" height="26" rx="7" class="bestFill"/><text x="1469.5000000000002" y="981" class="num strong" text-anchor="middle">5.3</text><rect x="1546.2" y="962" width="133.4" height="26" rx="7" class="secondFill"/><text x="1612.9" y="981" class="num" text-anchor="middle">80.2</text><rect x="1689.6000000000001" y="962" width="133.4" height="26" rx="7" class="secondFill"/><text x="1756.3000000000002" y="981" class="num" text-anchor="middle">6.8</text><text x="78" y="1015" class="model">Claude Opus 4.7</text><text x="358" y="1015" class="num" text-anchor="middle">2026</text><text x="465.7" y="1015" class="num" text-anchor="middle">43.2</text><text x="609.1" y="1015" class="num" text-anchor="middle">16.0</text><text x="752.5" y="1015" class="num" text-anchor="middle">74.0</text><text x="895.9000000000001" y="1015" class="num" text-anchor="middle">8.3</text><text x="1039.3" y="1015" class="num" text-anchor="middle">48.7</text><text x="1182.7" y="1015" class="num" text-anchor="middle">20.3</text><text x="1326.1000000000001" y="1015" class="num" text-anchor="middle">46.6</text><text x="1469.5000000000002" y="1015" class="num" text-anchor="middle">12.2</text><text x="1612.9" y="1015" class="num" text-anchor="middle">57.2</text><text x="1756.3000000000002" y="1015" class="num" text-anchor="middle">13.1</text><rect x="72" y="1026" width="1756" height="34" class="stripe"/><text x="78" y="1049" class="model">GPT-5.5</text><text x="358" y="1049" class="num" text-anchor="middle">2026</text><rect x="399" y="1030" width="133.4" height="26" rx="7" class="bestFill"/><text x="465.7" y="1049" class="num strong" text-anchor="middle">85.6</text><rect x="542.4" y="1030" width="133.4" height="26" rx="7" class="bestFill"/><text x="609.1" y="1049" class="num strong" text-anchor="middle">3.7</text><text x="752.5" y="1049" class="num" text-anchor="middle">86.4</text><text x="895.9000000000001" y="1049" class="num" text-anchor="middle">5.7</text><text x="1039.3" y="1049" class="num" text-anchor="middle">68.0</text><rect x="1116" y="1030" width="133.4" height="26" rx="7" class="bestFill"/><text x="1182.7" y="1049" class="num strong" text-anchor="middle">7.8</text><text x="1326.1000000000001" y="1049" class="num" text-anchor="middle">65.3</text><rect x="1402.8000000000002" y="1030" width="133.4" height="26" rx="7" class="secondFill"/><text x="1469.5000000000002" y="1049" class="num" text-anchor="middle">6.6</text><text x="1612.9" y="1049" class="num" text-anchor="middle">78.6</text><rect x="1689.6000000000001" y="1030" width="133.4" height="26" rx="7" class="bestFill"/><text x="1756.3000000000002" y="1049" class="num strong" text-anchor="middle">5.8</text><text x="78" y="1083" class="model">Grok 4.3</text><text x="358" y="1083" class="num" text-anchor="middle">2026</text><text x="465.7" y="1083" class="num" text-anchor="middle">33.6</text><text x="609.1" y="1083" class="num" text-anchor="middle">22.9</text><text x="752.5" y="1083" class="num" text-anchor="middle">73.6</text><text x="895.9000000000001" y="1083" class="num" text-anchor="middle">12.0</text><text x="1039.3" y="1083" class="num" text-anchor="middle">40.0</text><text x="1182.7" y="1083" class="num" text-anchor="middle">28.8</text><text x="1326.1000000000001" y="1083" class="num" text-anchor="middle">43.2</text><text x="1469.5000000000002" y="1083" class="num" text-anchor="middle">17.2</text><text x="1612.9" y="1083" class="num" text-anchor="middle">52.5</text><text x="1756.3000000000002" y="1083" class="num" text-anchor="middle">18.4</text><rect x="72" y="1094" width="1756" height="34" class="stripe"/><text x="78" y="1117" class="model">Gemini 3.5 Flash</text><text x="358" y="1117" class="num" text-anchor="middle">2026</text><rect x="399" y="1098" width="133.4" height="26" rx="7" class="secondFill"/><text x="465.7" y="1117" class="num" text-anchor="middle">84.9</text><text x="609.1" y="1117" class="num" text-anchor="middle">7.1</text><rect x="685.8" y="1098" width="133.4" height="26" rx="7" class="bestFill"/><text x="752.5" y="1117" class="num strong" text-anchor="middle">90.5</text><text x="895.9000000000001" y="1117" class="num" text-anchor="middle">4.5</text><rect x="972.6" y="1098" width="133.4" height="26" rx="7" class="bestFill"/><text x="1039.3" y="1117" class="num strong" text-anchor="middle">70.7</text><rect x="1116" y="1098" width="133.4" height="26" rx="7" class="secondFill"/><text x="1182.7" y="1117" class="num" text-anchor="middle">11.4</text><rect x="1259.4" y="1098" width="133.4" height="26" rx="7" class="bestFill"/><text x="1326.1000000000001" y="1117" class="num strong" text-anchor="middle">68.6</text><text x="1469.5000000000002" y="1117" class="num" text-anchor="middle">9.5</text><rect x="1546.2" y="1098" width="133.4" height="26" rx="7" class="bestFill"/><text x="1612.9" y="1117" class="num strong" text-anchor="middle">81.2</text><text x="1756.3000000000002" y="1117" class="num" text-anchor="middle">7.3</text><line x1="72" y1="1128" x2="1828" y2="1128" class="line"/>
</svg>
